<svg width="115" height="129" viewBox="0 0 115 129" fill="none" stroke-width="100" xmlns="http://www.w3.org/2000/svg">
<path fill-rule="evenodd" clip-rule="evenodd" d="M112.62 0.472924C112.871 0.420853 113.116 0.5817 113.168 0.832184C114.82 8.77664 114.834 19.1682 113.228 29.6999C111.622 40.2331 108.39 50.9445 103.52 59.5226C98.6528 68.0942 92.1131 74.597 83.8684 76.5832C75.6082 78.5732 65.7776 75.9971 54.4126 66.7208C43.1425 57.522 34.4312 54.3005 27.6702 55.1292C20.9397 55.9541 15.9781 60.8181 12.2562 68.2236C8.53481 75.6281 6.10183 85.4845 4.3992 96.097C2.69761 106.703 1.73086 118.027 0.925094 128.353C0.90519 128.608 0.682285 128.799 0.427222 128.779C0.172158 128.759 -0.0184768 128.536 0.00142708 128.281C0.807175 117.955 1.77623 106.598 3.48442 95.9502C5.19158 85.3094 7.64237 75.3407 11.4284 67.8075C15.214 60.2753 20.3835 55.0889 27.5575 54.2096C34.701 53.3341 43.6676 56.7547 54.9984 66.0031C66.2344 75.174 75.774 77.5802 83.6515 75.6825C91.5445 73.781 97.9099 67.5262 102.714 59.0652C107.514 50.6107 110.718 40.0146 112.312 29.5603C113.906 19.1045 113.884 8.82868 112.261 1.02075C112.209 0.770263 112.37 0.524994 112.62 0.472924Z" fill="black"  />
</svg>
