<svg width="117" height="130" viewBox="0 0 117 130" fill="none" xmlns="http://www.w3.org/2000/svg">
<path fill-rule="evenodd" clip-rule="evenodd" d="M113.113 0.789208C113.364 0.737138 113.609 0.897984 113.661 1.14847C115.313 9.09292 115.327 19.4845 113.721 30.0162C112.115 40.5494 108.883 51.2608 104.013 59.8389C99.1458 68.4105 92.6061 74.9133 84.3615 76.8995C76.1013 78.8894 66.2706 76.3134 54.9056 67.0371C43.6356 57.8383 34.9243 54.6168 28.1633 55.4455C21.4328 56.2704 16.4712 61.1343 12.7493 68.5399C9.02785 75.9444 6.59487 85.8007 4.89224 96.4133C3.19065 107.019 2.2239 118.343 1.41814 128.669C1.39823 128.924 1.17533 129.115 0.920264 129.095C0.6652 129.075 0.474565 128.852 0.494469 128.597C1.30022 118.272 2.26927 106.914 3.97747 96.2665C5.68463 85.6257 8.13542 75.657 11.9215 68.1238C15.707 60.5916 20.8765 55.4051 28.0505 54.5259C35.194 53.6503 44.1606 57.0709 55.4915 66.3194C66.7274 75.4903 76.267 77.8965 84.1445 75.9988C92.0375 74.0973 98.4029 67.8425 103.207 59.3815C108.007 50.927 111.211 40.3309 112.805 29.8766C114.399 19.4208 114.377 9.14496 112.754 1.33703C112.702 1.08655 112.863 0.841278 113.113 0.789208Z" fill="black"/>
<path fill-rule="evenodd" clip-rule="evenodd" d="M115.097 1.71098C115.222 1.68454 115.345 1.76456 115.371 1.88972C117.043 9.80235 116.946 20.1261 115.181 30.6426C113.416 41.1604 109.979 51.8894 104.958 60.6114C99.9381 69.3301 93.3181 76.0704 85.1739 78.5573C77.0178 81.0479 67.3921 79.2555 56.4087 71.0328C45.4822 62.8527 36.9154 59.842 30.1675 60.5097C23.436 61.1758 18.4492 65.5109 14.6937 72.1921C10.9361 78.877 8.43048 87.8803 6.66027 97.8073C4.89066 107.731 3.8591 118.559 3.04028 128.883C3.03017 129.011 2.9186 129.106 2.79108 129.096C2.66356 129.086 2.56838 128.974 2.5785 128.846C3.3975 118.52 4.43044 107.673 6.20423 97.726C7.97742 87.7822 10.4941 78.7181 14.2899 71.9651C18.0878 65.2083 23.1856 60.7351 30.1219 60.0487C37.0418 59.364 45.7261 62.4566 56.6863 70.662C67.5897 78.8248 77.064 80.5494 85.0386 78.1143C93.0251 75.6755 99.5664 69.0474 104.556 60.3803C109.544 51.7166 112.966 41.0427 114.724 30.5659C116.482 20.0878 116.574 9.82524 114.918 1.98548C114.891 1.86032 114.971 1.73742 115.097 1.71098Z" fill="black"/>
</svg>
