<svg width="119" height="131" viewBox="0 0 119 131" fill="none" xmlns="http://www.w3.org/2000/svg">
<path fill-rule="evenodd" clip-rule="evenodd" d="M112.82 0.0097889C113.07 -0.0422814 113.316 0.118565 113.368 0.369049C115.019 8.31351 115.034 18.7051 113.428 29.2368C111.822 39.77 108.59 50.4814 103.719 59.0595C98.8525 67.6311 92.3128 74.1339 84.0681 76.1201C75.8079 78.11 65.9773 75.5339 54.6123 66.2577C43.3422 57.0589 34.6309 53.8374 27.8699 54.666C21.1394 55.491 16.1778 60.3549 12.4559 67.7604C8.73452 75.165 6.30153 85.0213 4.59891 95.6339C2.89731 106.24 1.93057 117.564 1.1248 127.89C1.1049 128.145 0.881992 128.335 0.626929 128.316C0.371865 128.296 0.18123 128.073 0.201134 127.818C1.00688 117.492 1.97594 106.134 3.68413 95.4871C5.39129 84.8463 7.84208 74.8776 11.6281 67.3444C15.4137 59.8122 20.5832 54.6257 27.7572 53.7465C34.9007 52.8709 43.8673 56.2915 55.1981 65.5399C66.4341 74.7109 75.9737 77.1171 83.8512 75.2194C91.7442 73.3179 98.1096 67.0631 102.914 58.6021C107.714 50.1476 110.918 39.5515 112.512 29.0972C114.106 18.6414 114.084 8.36554 112.461 0.557612C112.409 0.307128 112.57 0.0618592 112.82 0.0097889Z" fill="black"/>
<path fill-rule="evenodd" clip-rule="evenodd" d="M114.803 0.931563C114.928 0.905121 115.051 0.985145 115.077 1.1103C116.749 9.02293 116.652 19.3467 114.887 29.8632C113.122 40.3809 109.686 51.11 104.664 59.832C99.6444 68.5507 93.0244 75.291 84.8801 77.7779C76.7241 80.2685 67.0984 78.476 56.115 70.2534C45.1885 62.0733 36.6217 59.0626 29.8738 59.7303C23.1423 60.3964 18.1555 64.7315 14.4 71.4127C10.6424 78.0976 8.13678 87.1009 6.36657 97.0279C4.59696 106.952 3.5654 117.779 2.74658 128.104C2.73647 128.231 2.6249 128.326 2.49738 128.316C2.36986 128.306 2.27468 128.195 2.28479 128.067C3.1038 117.74 4.13674 106.894 5.91053 96.9466C7.68372 87.0028 10.2004 77.9386 13.9962 71.1857C17.7941 64.4289 22.8919 59.9557 29.8282 59.2693C36.7481 58.5846 45.4324 61.6772 56.3926 69.8825C67.296 78.0453 76.7703 79.77 84.7449 77.3349C92.7314 74.8961 99.2727 68.2679 104.263 59.6009C109.251 50.9372 112.672 40.2633 114.43 29.7865C116.189 19.3083 116.281 9.04582 114.624 1.20606C114.598 1.0809 114.678 0.958006 114.803 0.931563Z" fill="black"/>
<path fill-rule="evenodd" clip-rule="evenodd" d="M117.143 1.04488C117.206 1.03166 117.267 1.07167 117.28 1.13425C118.949 9.02968 118.736 19.5195 116.799 30.2972C114.862 41.0758 111.197 52.1521 105.952 61.2205C100.708 70.2869 93.877 77.3599 85.5997 80.1065C77.3152 82.8554 67.6102 81.2617 56.6452 73.0527C45.709 64.8654 37.2257 61.687 30.5799 62.16C23.9447 62.6323 19.1096 66.748 15.4726 73.235C11.8341 79.7247 9.40454 88.5721 7.58092 98.4686C5.83444 107.946 4.64544 118.376 3.47956 128.603C3.42825 129.053 3.37699 129.502 3.32573 129.951C3.31848 130.015 3.26108 130.061 3.19754 130.053C3.13399 130.046 3.08835 129.989 3.09561 129.925C3.14698 129.475 3.19835 129.024 3.24977 128.573C4.41535 118.349 5.60517 107.913 7.35313 98.4266C9.17791 88.5238 11.6128 79.6457 15.2706 73.1217C18.9299 66.595 23.823 62.4088 30.5635 61.929C37.2935 61.4499 45.8335 64.6692 56.784 72.8673C67.7057 81.0438 77.3326 82.6056 85.5267 79.8866C93.7281 77.1653 100.522 70.1468 105.752 61.1045C110.98 52.0641 114.637 41.0145 116.571 30.2562C118.505 19.497 118.714 9.03909 117.054 1.18213C117.041 1.11955 117.081 1.0581 117.143 1.04488Z" fill="black"/>
</svg>
