<svg width="125" height="134" viewBox="0 0 125 134" fill="none" xmlns="http://www.w3.org/2000/svg">
<path fill-rule="evenodd" clip-rule="evenodd" d="M117.599 2.68765C117.85 2.63558 118.095 2.79642 118.147 3.04691C119.799 10.9958 119.677 21.4052 117.867 31.9593C116.057 42.5157 112.552 53.256 107.409 61.8621C102.27 70.4622 95.4589 76.9877 87.0164 78.9937C78.5568 81.0038 68.5916 78.4462 57.2231 69.1672C45.9531 59.9683 37.2418 56.7469 30.4808 57.5755C23.7503 58.4004 18.7887 63.2644 15.0668 70.6699C11.3454 78.0745 8.91237 87.9308 7.20975 98.5433C5.50815 109.149 4.5414 120.473 3.73564 130.799C3.71574 131.054 3.49283 131.245 3.23777 131.225C2.9827 131.205 2.79207 130.982 2.81197 130.727C3.61772 120.402 4.58678 109.044 6.29497 98.3966C8.00213 87.7558 10.4529 77.787 14.239 70.2539C18.0245 62.7217 23.194 57.5352 30.368 56.6559C37.5115 55.7804 46.4781 59.201 57.809 68.4494C69.0415 77.6175 78.7176 80.0133 86.8022 78.0923C94.9039 76.1673 101.54 69.8772 106.614 61.3868C111.684 52.9024 115.157 42.2772 116.954 31.8027C118.75 21.326 118.862 11.039 117.24 3.23547C117.188 2.98498 117.349 2.73972 117.599 2.68765Z" fill="black"/>
<path fill-rule="evenodd" clip-rule="evenodd" d="M116.35 0.488927C116.726 0.410821 117.094 0.652091 117.172 1.02782C118.832 9.01183 118.707 19.0909 116.892 29.128C115.077 39.1664 111.561 49.2189 106.392 57.1371C101.224 65.0526 94.3552 70.9032 85.8255 72.3702C77.2871 73.8387 67.2684 70.8835 55.8751 61.5842C45.2656 52.9245 36.9168 49.8406 30.3341 50.5109C23.7911 51.1772 18.7725 55.5808 14.8704 62.4608C10.9663 69.3443 8.24634 78.6004 6.2826 88.7204C4.32075 98.8307 3.12296 109.752 2.23845 119.937C2.02645 122.379 1.8325 124.777 1.65034 127.111C1.62048 127.494 1.28612 127.78 0.903528 127.75C0.520932 127.72 0.23498 127.386 0.264836 127.003C0.447197 124.666 0.641489 122.264 0.85395 119.817C1.73984 109.615 2.94257 98.6376 4.91833 88.4557C6.8922 78.2835 9.64692 68.8537 13.6616 61.7752C17.6782 54.6932 23.0224 49.8586 30.1933 49.1284C37.3245 48.4022 46.0405 51.7632 56.7539 60.5076C67.9615 69.6555 77.5841 72.3775 85.5899 71.0006C93.6045 69.6222 100.183 64.1048 105.228 56.3774C110.271 48.6528 113.734 38.7874 115.525 28.8807C117.316 18.9726 117.426 9.07904 115.812 1.31066C115.734 0.934935 115.975 0.567032 116.35 0.488927Z" fill="black"/>
<path fill-rule="evenodd" clip-rule="evenodd" d="M119.033 4.18535C119.158 4.15891 119.281 4.23893 119.308 4.36409C120.979 12.2767 120.882 22.6005 119.117 33.1169C117.352 43.6347 113.916 54.3638 108.894 63.0858C103.875 71.8045 97.2544 78.5448 89.1102 81.0317C80.9541 83.5222 71.3284 81.7298 60.3451 73.5071C49.4198 65.3279 40.7508 62.2942 33.8494 62.9304C26.9627 63.5653 21.7741 67.8616 17.8178 74.4994C13.859 81.1412 11.1518 90.1011 9.23018 99.9947C7.30921 109.885 6.17659 120.69 5.35791 131.013C5.3478 131.141 5.23622 131.236 5.1087 131.226C4.98119 131.216 4.88601 131.104 4.89612 130.976C5.71526 120.648 6.8495 109.822 8.77544 99.9064C10.7007 89.9937 13.4205 80.9722 17.4199 74.2622C21.4216 67.5481 26.7222 63.1222 33.8069 62.4691C40.8768 61.8174 49.6613 64.9301 60.6227 73.1363C71.5261 81.2991 81.0004 83.0238 88.975 80.5886C96.9615 78.1499 103.503 71.5217 108.493 62.8547C113.481 54.191 116.902 43.5171 118.66 33.0403C120.419 22.5621 120.511 12.2996 118.854 4.45984C118.828 4.33468 118.908 4.21179 119.033 4.18535Z" fill="black"/>
<path fill-rule="evenodd" clip-rule="evenodd" d="M123.501 5.35751C123.563 5.34428 123.625 5.3843 123.638 5.44687C125.306 13.3428 125.036 23.804 123.012 34.5384C120.987 45.2738 117.207 56.2923 111.846 65.3027C106.486 74.3114 99.5384 81.3258 91.1746 84.0285C82.8039 86.7335 73.0414 85.1112 62.0762 76.9021C51.1401 68.7148 42.6567 65.5364 36.011 66.0094C29.3757 66.4817 24.5407 70.5974 20.9037 77.0844C17.2651 83.5741 14.8356 92.4215 13.0119 102.318C11.2655 111.796 10.0765 122.225 8.91058 132.452C8.85928 132.902 8.80802 133.352 8.75676 133.801C8.74951 133.864 8.69211 133.91 8.62857 133.903C8.56502 133.895 8.51938 133.838 8.52664 133.775C8.57801 133.324 8.62938 132.874 8.68081 132.423C9.84639 122.199 11.0362 111.762 12.7842 102.276C14.6089 92.3732 17.0439 83.4951 20.7016 76.9711C24.3609 70.4444 29.254 66.2582 35.9945 65.7784C42.7245 65.2993 51.2645 68.5186 62.215 76.7167C73.1366 84.8931 82.8218 86.4843 91.1034 83.8081C99.3919 81.1298 106.301 74.1685 111.647 65.1843C116.991 56.2018 120.764 45.2101 122.784 34.4955C124.805 23.7799 125.071 13.3513 123.411 5.49475C123.398 5.43217 123.438 5.37073 123.501 5.35751Z" fill="black"/>
</svg>
